<?xml version="1.0" encoding="UTF-8"?>
<svg id="Layer_1" xmlns="http://www.w3.org/2000/svg" version="1.1" viewBox="0 0 633.3 666.7">
  <!-- Generator: Adobe Illustrator 29.3.0, SVG Export Plug-In . SVG Version: 2.1.0 Build 146)  -->
  <defs>
    <style>
      .st0 {
        fill: #f4f4f4;
        fill-rule: evenodd;
      }
    </style>
  </defs>
  <path class="st0" d="M376,5.1c-12.3-5.1-28-5.1-59.3-5.1s-46.9,0-59.3,5.1c-16.5,6.8-29.5,19.7-36.4,36.1-3.1,7.5-4.3,16.1-4.8,28.8-.7,18.6-10.3,35.8-26.5,45.1-16.2,9.3-36.1,9-52.6.3-11.3-5.9-19.5-9.2-27.5-10.3-17.7-2.3-35.5,2.4-49.7,13.2-10.6,8.1-18.4,21.5-34.1,48.4C10.1,193.6,2.3,207,.6,220.2c-2.3,17.5,2.5,35.3,13.3,49.3,5,6.4,11.9,11.8,22.7,18.5,15.9,9.9,26.1,26.8,26.1,45.4s-10.2,35.5-26.1,45.4c-10.8,6.7-17.8,12.1-22.7,18.5-10.8,14-15.6,31.8-13.3,49.3,1.7,13.1,9.6,26.6,25.2,53.5,15.6,26.9,23.5,40.4,34.1,48.4,14.1,10.8,32,15.5,49.7,13.2,8.1-1.1,16.2-4.3,27.5-10.3,16.6-8.7,36.4-9,52.6.3,16.2,9.3,25.8,26.5,26.5,45.1.5,12.6,1.7,21.3,4.8,28.8,6.8,16.3,19.9,29.3,36.4,36.1,12.3,5.1,28,5.1,59.3,5.1s46.9,0,59.3-5.1c16.5-6.8,29.5-19.7,36.4-36.1,3.1-7.5,4.3-16.1,4.8-28.8.7-18.6,10.3-35.8,26.5-45.1,16.2-9.3,36.1-9,52.6-.3,11.3,5.9,19.4,9.2,27.5,10.3,17.7,2.3,35.5-2.4,49.7-13.2,10.6-8.1,18.4-21.5,34.1-48.4,15.6-26.9,23.5-40.4,25.2-53.5,2.3-17.5-2.5-35.3-13.3-49.3-5-6.4-11.9-11.8-22.7-18.5-15.9-9.9-26.1-26.8-26.1-45.4s10.2-35.5,26.1-45.4c10.8-6.7,17.8-12.1,22.7-18.5,10.8-14,15.6-31.8,13.3-49.3-1.7-13.1-9.6-26.6-25.2-53.5s-23.5-40.4-34.1-48.4c-14.1-10.8-32-15.5-49.7-13.2-8.1,1.1-16.2,4.3-27.5,10.3-16.6,8.7-36.4,9-52.6-.3-16.2-9.3-25.8-26.5-26.5-45.1-.5-12.6-1.7-21.3-4.8-28.8-6.8-16.3-19.9-29.3-36.4-36.1ZM316.7,433.3c55.7,0,100.8-44.8,100.8-100s-45.1-100-100.8-100-100.8,44.8-100.8,100,45.1,100,100.8,100Z"/>
</svg>