<?xml version="1.0" encoding="UTF-8"?>
<svg id="Layer_1" xmlns="http://www.w3.org/2000/svg" version="1.1" viewBox="0 0 800 800">
  <!-- Generator: Adobe Illustrator 29.2.1, SVG Export Plug-In . SVG Version: 2.1.0 Build 116)  -->
  <defs>
    <style>
      .st0 {
        fill: #1582cc;
      }
    </style>
  </defs>
  <path class="st0" d="M341.6,790.4c-19.7-18.1-34.7-33.6-44.8-46.4-13.9-17.1-23.7-34.1-29.6-51.2-6.4-20.3-8-41.6-4.8-64l-64.8,16-4-7.2,52.8-75.2c-12.8-6.9-26.7-8.5-41.6-4.8-9.1,1.6-21.9,6.9-38.4,16l-4,1.6c-13.9-14.9-29.1-23.1-45.6-24.4-16.5-1.3-36.8,3.9-60.8,15.6l-5.6,3.2c-12.3,5.9-22.4,9.6-30.4,11.2l1.6-5.6c2.1-5.9,4-10.1,5.6-12.8,29.9-51.7,70.9-91.7,123.2-120,2.7-1.6,6.4-3.2,11.2-4.8l4.8-2.4c8-3.2,13.9-3.6,17.6-1.2s5.6,7.9,5.6,16.4c-.5,29.3,9.6,48.8,30.4,58.4,5.3,2.1,13.9,4,25.6,5.6l11.2,2.4,4-9.6-6.4-4c-5.3-3.2-9.2-5.5-11.6-6.8s-6.3-2.8-11.6-4.4c-8.5-3.2-12.8-5.6-12.8-7.2-.5-5.9,1.1-9.9,4.8-12,2.1-1.1,6.1-1.6,12-1.6l7.2-.8c.5,0,1.6-.3,3.2-.8l4-3.2-8.8-4c-7.5-3.2-12.8-6-16-8.4s-7.2-6.5-12-12.4l-5.6-6.4,23.2-5.6c1.1,0,2.9.3,5.6.8h1.6l4-28c4.3-32.5,6.7-57.1,7.2-73.6.5-5.3-1.3-13.9-5.6-25.6-3.2-6.9-5.1-12.3-5.6-16l-1.6-6.4c-5.9-26.7-9.3-46.7-10.4-60-1.1-11.2,1.2-18.8,6.8-22.8s13.7-4.1,24.4-.4c5.3,1.6,13.3,4.8,24,9.6,12.8,5.3,22.4,9.1,28.8,11.2,14.9,3.7,33.3,6.1,55.2,7.2,2.7,0,6-1.3,10-4s6.3-5.1,6.8-7.2c0-10.1-2.7-19.5-8-28-1.6-3.2-5.6-6.7-12-10.4-4.3-2.1-7.2-4-8.8-5.6-15.5-13.3-25.3-30.1-29.6-50.4-4.3-20.3-2.1-39.2,6.4-56.8,9.6-19.7,23.7-34.7,42.4-44.8,18.7-10.1,37.9-13.3,57.6-9.6,22.4,4.3,40.7,14,54.8,29.2s22,33.7,23.6,55.6c1.6,19.7-3.6,38.9-15.6,57.6s-27.3,30.9-46,36.8c-8,2.1-13.6,5.9-16.8,11.2s-3.5,10.9-.8,16.8c1.6,3.7,5.7,6.8,12.4,9.2s12.4,3.1,17.2,2c11.2-2.7,27.7-8,49.6-16l26.4-10.4c6.9-2.7,12.5-4.3,16.8-4.8,7.5-1.1,13.5.1,18,3.6s6.3,8.9,5.2,16.4c-2.1,12.3-5.9,30.4-11.2,54.4l-8.8,41.6c-1.6,10.1-2.1,20-1.6,29.6,1.1,12.8,2.7,32.3,4.8,58.4l3.2,30.4,4-.8c4.8-1.1,8.4-1.3,10.8-.8s6,1.9,10.8,4l5.6,2.4-3.2,6.4c-2.7,5.3-5.3,8.8-8,10.4-3.7,2.7-10.1,5.3-19.2,8l-9.6,3.2.8,5.6,4.8.8c4.8,0,8.3.7,10.4,2s5.3,4.1,9.6,8.4l4.8,4-4.8,4.8c-4.8,4.3-8.4,6.5-10.8,6.8s-5.5.4-9.2.4c-5.3,0-9.1.5-11.2,1.6-3.7,2.1-5.9,6.4-6.4,12.8,15.5,6.4,30,5.2,43.6-3.6s22-22.3,25.2-40.4l7.2-33.6,12,4c13.3,3.2,22.7,6.4,28,9.6,48,26.1,86.4,64,115.2,113.6,2.7,4.3,5.1,8.8,7.2,13.6.5,1.1.5,2.7,0,4.8v4c-7.5-2.7-18.9-7.6-34.4-14.8s-27.2-11.9-35.2-14c-12.8-3.7-24.5-4.5-35.2-2.4-13.3,3.2-25.9,10.9-37.6,23.2-16.5-9.1-29.6-14.7-39.2-16.8-15.5-3.7-30.4-2.7-44.8,3.2l55.2,78.4c-8.5,2.7-17.6,2.9-27.2.8-5.9-1.1-14.4-3.7-25.6-8l-16-5.6c3.2,33.1-2.9,63.7-18.4,92-12.8,22.4-33.3,46.1-61.6,71.2-8.5-22.4-16.8-37.3-24.8-44.8s-19.6-11.1-34.8-10.8-26.5,4.1-34,11.6-15.2,22.4-23.2,44.8ZM364,465.6c-1.6-6.9-6.7-14.4-15.2-22.4s-18.1-14.5-28.8-19.6-19.5-6.8-26.4-5.2c-1.6.5-3.7,1.9-6.4,4l-3.2,2.4,2.4,4.8c2.7,4.8,5.1,7.5,7.2,8,12.8,5.3,32.3,13.1,58.4,23.2l12,4.8ZM434.4,465.6c3.7-1.1,9.6-3.2,17.6-6.4,26.1-10.7,45.9-18.7,59.2-24,1.1-.5,2-2.1,2.8-4.8s1.1-4.7.8-6-1.5-2.7-3.6-4-4.3-2-6.4-2c-6.9-1.1-15.6.8-26,5.6s-19.9,11.2-28.4,19.2-13.9,15.5-16,22.4ZM312.8,255.2c-5.9-2.1-14.4-5.6-25.6-10.4l-25.6-9.6,13.6,56.8,37.6-36.8ZM490.4,253.6c3.7,4.3,9.6,10.9,17.6,20l16.8,19.2,12.8-56.8-47.2,17.6ZM424,498.4c-6.9-7.5-15.2-16.3-24.8-26.4l-5.6,7.2c-6.4,8-9.7,13.9-10,17.6s3.1,9.1,10,16l6.4,7.2,24-21.6Z"/>
</svg>