<?xml version="1.0" encoding="UTF-8"?>
<svg id="Layer_1" xmlns="http://www.w3.org/2000/svg" version="1.1" xmlns:xlink="http://www.w3.org/1999/xlink" viewBox="0 0 800 800">
  <!-- Generator: Adobe Illustrator 29.3.0, SVG Export Plug-In . SVG Version: 2.1.0 Build 146)  -->
  <defs>
    <style>
      .st0 {
        fill: #f7f7f7;
        fill-rule: evenodd;
      }
    </style>
  </defs>
  <path class="st0" d="M464.7,27H171.2L45.4,631.4h155.8l44.3-142.1h219.2c106.9,0,193.7-95.8,193.7-213.8v-42.7c0-118.1-86.8-205.8-193.7-205.8h0ZM476.5,268.8c0,48.6-40.9,88-64.6,88l-137.8.6,39.2-194.3h98.6c23.7,0,64.6,39.4,64.6,88v17.7h0Z"/>
  <path class="st0" d="M711.2,205.6c0,36.2-2.4,69.2-2.4,99.3,0,151.1-61.6,240.2-198.7,240.2h-201.5l-73.9,230.9h124.2l44.4-142.2h201.5c107,0,193.6-81,193.6-198.3v-42.4c0-81.3-25.8-151.8-87.1-187.5h0Z"/>
</svg>